<svg data-v-423bf9ae="" xmlns="http://www.w3.org/2000/svg" viewBox="0 0 464 90" class="iconLeft"><!----><!----><!----><g data-v-423bf9ae="" id="ed7101cf-0670-4b76-8ddc-ae2842b5546a" fill="black" transform="matrix(4.735595867300924,0,0,4.735595867300924,96.26953461661927,9.411997275705517)"><path d="M7.56 7.17L7.56 7.17Q7.56 7.14 7.58 7.45Q7.60 7.76 7.60 7.98L7.60 7.98Q7.59 8.29 7.50 8.43L7.50 8.43Q6.66 9.88 5.64 10.98L5.64 10.98Q4.17 12.56 2.98 12.56L2.98 12.56Q1.93 12.56 1.33 11.52L1.33 11.52Q0.84 10.71 0.84 9.80L0.84 9.80Q0.84 8.58 1.90 7.06Q2.97 5.54 4.14 5.00L4.14 5.00Q4.27 5.19 4.28 5.21L4.28 5.21Q4.41 5.36 4.55 5.36L4.55 5.36L5.52 5.36Q5.57 5.28 5.54 5.10L5.54 5.10Q5.52 4.82 5.52 4.83L5.52 4.83L5.52 3.93Q5.52 3.82 5.10 3.53L5.10 3.53Q4.62 3.19 4.58 3.14L4.58 3.14Q4.44 3.25 4.28 3.35L4.28 3.35Q4.09 3.46 3.85 3.46L3.85 3.46Q3.85 3.02 4.87 2.11Q5.89 1.20 6.23 1.20L6.23 1.20Q6.29 1.20 6.85 1.66Q7.41 2.11 7.41 2.20L7.41 2.20L7.41 3.42Q7.41 3.44 7.45 3.60Q7.49 3.77 7.49 3.81L7.49 3.81L7.49 5.68Q7.49 5.68 7.53 6.31Q7.56 6.94 7.56 7.17ZM5.66 8.65L5.66 8.65L5.57 6.29Q5.38 6.44 4.86 6.78L4.86 6.78Q4.16 7.22 3.99 7.22L3.99 7.22L2.86 7.22Q2.84 7.34 2.79 7.57L2.79 7.57Q2.74 7.74 2.74 8.19L2.74 8.19Q2.74 9.18 3.28 9.91L3.28 9.91Q3.92 10.79 5.03 10.70L5.03 10.70Q5.52 10.21 5.63 9.69L5.63 9.69Q5.66 9.51 5.66 8.65ZM17.30 10.44L17.30 10.44Q17.19 10.77 16.38 11.68L16.38 11.68Q15.50 12.68 15.09 12.68L15.09 12.68Q15.04 12.68 14.42 12.11L14.42 12.11Q13.76 11.51 13.73 11.28L13.73 11.28Q13.37 11.76 12.46 12.22Q11.55 12.68 11.03 12.68L11.03 12.68Q10.15 12.68 9.55 11.89L9.55 11.89Q9.03 11.20 9.03 10.46L9.03 10.46Q9.03 8.64 10.67 6.72L10.67 6.72Q12.12 5.01 13.43 4.65L13.43 4.65Q13.47 4.63 13.62 4.55Q13.78 4.47 13.83 4.47L13.83 4.47Q13.82 4.47 14.23 4.75Q14.64 5.04 15.13 5.04L15.13 5.04Q15.65 5.04 15.88 4.93L15.88 4.93Q16.06 4.83 16.30 4.86L16.30 4.86Q16.34 5.19 15.65 5.85L15.65 5.85L15.65 7.04Q15.65 7.10 15.69 7.24Q15.74 7.38 15.74 7.42L15.74 7.42L15.74 9.59Q16.10 9.94 16.80 10.58L16.80 10.58Q17.18 10.42 17.30 10.44ZM13.76 10.39L13.76 10.39L13.76 9.37Q13.76 9.31 13.72 9.17Q13.68 9.03 13.68 8.99L13.68 8.99L13.68 7.07Q13.65 7.06 13.12 7.06L13.12 7.06Q12.87 7.06 12.49 6.79L12.49 6.79Q12.22 6.59 11.96 6.40L11.96 6.40Q11.52 6.62 11.24 7.42L11.24 7.42Q11.00 8.09 11.00 8.67L11.00 8.67Q11.00 9.31 11.48 9.95L11.48 9.95Q12.03 10.71 12.80 10.71L12.80 10.71Q13.10 10.71 13.76 10.39ZM24.56 5.14L24.74 5.19Q24.67 5.73 23.78 6.50Q22.89 7.28 22.25 7.43L22.25 7.43L22.25 9.17Q22.25 9.35 22.08 10.02L22.08 10.02Q21.74 11.40 21.39 12.07L21.39 12.07Q20.71 13.38 19.49 13.85L19.49 13.85Q19.56 13.72 19.95 12.47L19.95 12.47Q20.36 11.13 20.36 10.79L20.36 10.79L20.36 7.21Q19.99 7.00 19.57 7.00L19.57 7.00Q19.21 7.00 18.86 7.15L18.86 7.15Q18.77 7.18 18.19 7.52L18.19 7.52L18.00 7.46Q18.07 7.00 18.90 6.26L18.90 6.26Q19.61 5.61 20.29 5.26L20.29 5.26L20.29 3.84Q20.29 3.78 19.97 3.48Q19.66 3.18 19.61 3.18L19.61 3.18Q19.59 3.18 19.43 3.26Q19.28 3.35 19.11 3.32L19.11 3.32Q19.22 2.98 19.99 2.13L19.99 2.13Q20.85 1.18 21.27 1.18L21.27 1.18Q21.34 1.18 22.16 2.00L22.16 2.00L22.16 4.76Q22.16 5.31 22.55 5.46L22.55 5.46Q22.75 5.54 23.32 5.54L23.32 5.54Q23.73 5.54 23.83 5.52Q23.93 5.49 24.56 5.14L24.56 5.14ZM34.15 10.44L34.15 10.44Q34.03 10.77 33.22 11.68L33.22 11.68Q32.34 12.68 31.93 12.68L31.93 12.68Q31.88 12.68 31.26 12.11L31.26 12.11Q30.60 11.51 30.58 11.28L30.58 11.28Q30.21 11.76 29.30 12.22Q28.39 12.68 27.87 12.68L27.87 12.68Q26.99 12.68 26.39 11.89L26.39 11.89Q25.87 11.20 25.87 10.46L25.87 10.46Q25.87 8.64 27.51 6.72L27.51 6.72Q28.97 5.01 30.27 4.65L30.27 4.65Q30.31 4.63 30.46 4.55Q30.62 4.47 30.67 4.47L30.67 4.47Q30.66 4.47 31.07 4.75Q31.49 5.04 31.98 5.04L31.98 5.04Q32.49 5.04 32.72 4.93L32.72 4.93Q32.90 4.83 33.14 4.86L33.14 4.86Q33.18 5.19 32.49 5.85L32.49 5.85L32.49 7.04Q32.49 7.10 32.54 7.24Q32.58 7.38 32.58 7.42L32.58 7.42L32.58 9.59Q32.94 9.94 33.64 10.58L33.64 10.58Q34.02 10.42 34.15 10.44ZM30.60 10.39L30.60 10.39L30.60 9.37Q30.60 9.31 30.56 9.17Q30.52 9.03 30.52 8.99L30.52 8.99L30.52 7.07Q30.49 7.06 29.96 7.06L29.96 7.06Q29.71 7.06 29.33 6.79L29.33 6.79Q29.06 6.59 28.80 6.40L28.80 6.40Q28.36 6.62 28.08 7.42L28.08 7.42Q27.85 8.09 27.85 8.67L27.85 8.67Q27.85 9.31 28.32 9.95L28.32 9.95Q28.87 10.71 29.64 10.71L29.64 10.71Q29.95 10.71 30.60 10.39ZM44.16 5.11L44.16 5.11Q44.16 5.91 44.02 6.55L44.02 6.55Q43.74 7.71 42.45 9.48L42.45 9.48Q42.03 10.07 40.96 11.14L40.96 11.14Q39.55 12.57 39.03 12.57L39.03 12.57Q38.84 12.57 37.61 11.61Q36.39 10.65 36.39 10.43L36.39 10.43L36.39 8.29Q36.39 8.25 36.34 8.10Q36.30 7.95 36.32 7.90L36.32 7.90L36.32 6.69Q35.84 6.58 35 6.27L35 6.27Q35.06 5.94 35.81 5.04L35.81 5.04Q36.62 4.07 37.03 4.07L37.03 4.07Q37.07 4.07 37.20 4.19Q37.34 4.30 37.39 4.33L37.39 4.33Q37.58 4.42 37.93 4.48L37.93 4.48Q38.39 4.56 38.50 4.59L38.50 4.59L38.50 6.22Q38.50 6.26 38.54 6.36Q38.58 6.45 38.58 6.51L38.58 6.51L38.58 8.53Q38.64 8.57 39.75 9.52L39.75 9.52Q40.54 10.23 40.84 10.29L40.84 10.29Q41.64 9.18 41.83 8.51L41.83 8.51Q41.97 8.05 41.97 7.01L41.97 7.01Q41.97 6.26 41.92 6.03L41.92 6.03Q41.76 5.33 41.13 5.00L41.13 5.00Q41.01 4.91 40.88 4.83L40.88 4.83Q40.71 4.72 40.61 4.72L40.61 4.72Q40.43 4.72 40.05 5.00Q39.68 5.28 39.54 5.28L39.54 5.28Q39.47 5.28 39.41 5.24L39.41 5.24Q39.49 4.65 40.70 3.60Q41.90 2.56 42.53 2.56L42.53 2.56Q42.87 2.56 43.57 3.04L43.57 3.04Q44.16 3.46 44.16 5.11ZM53.86 7.03L53.86 7.03Q53.86 8.20 52.49 9.55L52.49 9.55Q51.11 10.78 49.76 12.01L49.76 12.01Q49.60 12.17 49.10 12.26L49.10 12.26Q48.65 12.36 48.29 12.36L48.29 12.36Q47.31 12.36 46.42 11.56L46.42 11.56Q45.50 10.72 45.50 9.67L45.50 9.67Q45.50 8.26 46.62 6.47L46.62 6.47Q47.78 4.61 49.21 3.89L49.21 3.89Q49.22 3.92 49.21 4.06L49.21 4.06Q49.21 4.17 49.27 4.17L49.27 4.17Q49.41 4.17 49.95 4.03Q50.48 3.89 50.92 3.89L50.92 3.89Q52.18 3.89 53.05 4.89L53.05 4.89Q53.86 5.82 53.86 7.03ZM51.70 9.32L51.70 9.32L51.70 8.29Q51.70 7.77 50.97 6.97Q50.23 6.17 49.78 6.09L49.78 6.09Q49.20 5.99 49.01 5.99L49.01 5.99Q48.13 5.99 47.85 6.45L47.85 6.45Q47.66 6.79 47.66 7.76L47.66 7.76Q47.66 8.71 48.48 9.48Q49.31 10.25 50.19 10.25L50.19 10.25Q50.68 10.25 50.88 10.12L50.88 10.12Q51.02 10.04 51.70 9.32ZM64.79 10.37L64.97 10.37Q65.03 10.79 64.00 11.80Q62.97 12.81 62.62 12.81L62.62 12.81Q62.52 12.81 61.92 12.24Q61.32 11.68 61.39 11.45L61.39 11.45L61.36 10.49Q59.71 11.86 59.36 12.08L59.36 12.08Q58.58 12.57 57.61 12.57L57.61 12.57Q56.64 12.57 55.93 12.05L55.93 12.05Q55.10 11.47 55.10 10.43L55.10 10.43Q55.10 8.65 57.06 6.38L57.06 6.38Q57.02 6.34 56.91 6.34L56.91 6.34Q56.81 6.34 56.59 6.40Q56.36 6.45 56.32 6.45L56.32 6.45Q56.14 6.45 56 6.31L56 6.31Q56.04 6.08 56.80 5.22L56.80 5.22Q57.61 4.28 57.97 4.28L57.97 4.28Q58.03 4.28 58.09 4.33Q58.14 4.37 58.18 4.37L58.18 4.37Q58.24 4.37 58.33 4.33Q58.42 4.28 58.48 4.30L58.48 4.30L59.70 4.30Q59.75 4.34 59.75 4.44L59.75 4.44Q59.75 4.75 59.09 5.35L59.09 5.35Q58.17 6.20 57.85 6.62L57.85 6.62Q57.19 7.53 57.19 8.55L57.19 8.55Q57.19 9.48 57.92 10.01L57.92 10.01Q58.56 10.49 59.49 10.49L59.49 10.49Q60.48 10.49 61.39 9.60L61.39 9.60L61.39 7.78Q61.39 7.74 61.35 7.64Q61.31 7.55 61.31 7.49L61.31 7.49L61.31 6.40Q61.21 6.34 60.24 5.91L60.24 5.91L60.24 5.70Q60.24 5.47 61.10 4.63Q61.96 3.79 62.20 3.79L62.20 3.79Q62.33 3.79 63.38 4.38L63.38 4.38L63.38 5.54Q63.38 5.59 63.42 5.66Q63.46 5.73 63.46 5.77L63.46 5.77L63.46 9.73Q63.62 9.84 64.01 10.23L64.01 10.23Q64.33 10.57 64.39 10.57L64.39 10.57Q64.43 10.57 64.58 10.48Q64.74 10.39 64.79 10.37L64.79 10.37ZM70.15 9.95L70.15 9.95Q70.15 10.51 69.01 11.61L69.01 11.61Q67.93 12.61 67.62 12.66L67.62 12.66Q67.52 12.53 66.99 12.11L66.99 12.11Q66.70 11.87 66.70 11.55L66.70 11.55L66.70 7.41Q66.70 7.38 66.74 7.19Q66.78 7.00 66.78 6.94L66.78 6.94L66.78 3.92Q66.57 3.61 66.39 3.44L66.39 3.44Q65.95 3.74 65.52 3.93L65.52 3.93Q65.46 3.88 65.46 3.75L65.46 3.75Q65.46 3.30 66.54 2.24Q67.62 1.18 68.08 1.18L68.08 1.18Q68.21 1.18 68.54 1.48Q68.88 1.79 68.88 1.93L68.88 1.93L68.88 5.28Q68.88 5.32 68.84 5.43Q68.80 5.54 68.80 5.60L68.80 5.60L68.80 9.59Q68.80 9.72 69.01 9.97Q69.22 10.22 69.36 10.22L69.36 10.22Q69.38 10.22 69.65 10.04Q69.92 9.87 70.10 9.81L70.10 9.81Q70.15 9.87 70.15 9.95ZM77.38 5.14L77.56 5.19Q77.49 5.73 76.60 6.50Q75.71 7.28 75.07 7.43L75.07 7.43L75.07 9.17Q75.07 9.35 74.90 10.02L74.90 10.02Q74.56 11.40 74.21 12.07L74.21 12.07Q73.53 13.38 72.31 13.85L72.31 13.85Q72.38 13.72 72.77 12.47L72.77 12.47Q73.18 11.13 73.18 10.79L73.18 10.79L73.18 7.21Q72.81 7.00 72.39 7.00L72.39 7.00Q72.03 7.00 71.68 7.15L71.68 7.15Q71.60 7.18 71.01 7.52L71.01 7.52L70.83 7.46Q70.90 7.00 71.72 6.26L71.72 6.26Q72.44 5.61 73.11 5.26L73.11 5.26L73.11 3.84Q73.11 3.78 72.79 3.48Q72.48 3.18 72.44 3.18L72.44 3.18Q72.41 3.18 72.25 3.26Q72.10 3.35 71.93 3.32L71.93 3.32Q72.04 2.98 72.81 2.13L72.81 2.13Q73.67 1.18 74.09 1.18L74.09 1.18Q74.16 1.18 74.98 2.00L74.98 2.00L74.98 4.76Q74.98 5.31 75.38 5.46L75.38 5.46Q75.57 5.54 76.15 5.54L76.15 5.54Q76.55 5.54 76.65 5.52Q76.75 5.49 77.38 5.14L77.38 5.14Z"></path></g><!----><g data-v-423bf9ae="" id="91c05f3e-190a-4a9d-9f50-1fe77275ca22" transform="matrix(1.001794596643768,0,0,1.001794596643768,-9.141569522832675,-5.0091865401441495)" stroke="none" fill="black"><path d="M71.06 63.777c-.997 0-1.987.16-2.94.475-.077.024-.151.051-.226.078a9.466 9.466 0 00-5.488-1.771c-.994 0-1.983.158-2.939.473a9.376 9.376 0 00-6.398 9.918 7.665 7.665 0 00-3.465 9.075 7.682 7.682 0 009.289 5.025.991.991 0 00.216-.047l15.276-5.033c.07-.024.138-.054.201-.091 4.571-1.847 6.941-6.953 5.395-11.646a9.379 9.379 0 00-8.921-6.456zm3.309 17.671a.694.694 0 01-.14.067l-15.271 5.031a.568.568 0 01-.153.03 7.217 7.217 0 01-8.748-4.701c-1.124-3.414.439-7.056 3.527-8.662-.604-4.198 1.865-8.353 6.033-9.727a8.865 8.865 0 012.788-.45c1.973 0 3.874.659 5.411 1.833a8.927 8.927 0 013.243-.612 8.92 8.92 0 018.466 6.126 8.912 8.912 0 01-5.156 11.065z"></path><path d="M89.99 79.002l-1.145-3.5-7.012-21.457-15.015 4.886a1.731 1.731 0 01-.535.088c-.622 0-1.199-.372-1.727-1.118l-1.173-1.72-27.739 9.079a1.301 1.301 0 00-.75.649c-.088.173-.14.354-.162.518l9.046 27.68a1.238 1.238 0 001.559.79l43.862-14.335a1.239 1.239 0 00.791-1.56zm-.94 1.102L45.188 94.441a.757.757 0 01-.956-.484l-9.008-27.565c.021-.092.054-.183.097-.264a.806.806 0 01.472-.412l27.398-8.969.975 1.431c.621.876 1.333 1.32 2.118 1.32.225 0 .455-.038.683-.112l14.56-4.737 6.863 21.002 1.144 3.5a.757.757 0 01-.484.953z"></path><path d="M70.287 66.978h-.157l.08.479h.056a6.827 6.827 0 015.84 4.559 6.824 6.824 0 01-3.813 8.524.587.587 0 00-.086.045L59.73 84.902a.371.371 0 00-.066.015 5.438 5.438 0 01-6.637-3.442 5.41 5.41 0 011.21-5.523 5.575 5.575 0 011.156-.802c.513-.234.932-.375 1.313-.443a6.73 6.73 0 011.012-.096c.102 0 .201.004.319.015.349.018.707.083 1.137.204.368.127.688.26.934.384l.38.22.178.127.141.101c.114.076.202.154.273.218.045.04.085.075.115.099.084.07.131.111.134.115a.48.48 0 00.685-.669l-.153-.172a.829.829 0 01-.069-.079 2.51 2.51 0 00-.339-.342 40.357 40.357 0 00-.207-.183l-.102-.089a.572.572 0 00-.041-.032l-.313-.226-.08-.057a4.909 4.909 0 00-.342-.207l-.161-.093c-.127-.071-.266-.129-.409-.189a9.52 9.52 0 01-.217-.091c-.339-.119-.854-.286-1.416-.348a4.94 4.94 0 00-.737-.054c-.296 0-.609.023-.937.07a5.752 5.752 0 00-.741.161 6.775 6.775 0 014.58-6.583 6.787 6.787 0 012.23-.377c1.171 0 2.344.314 3.369.895l-.163.114c-.647.496-1.181 1.022-1.585 1.566-.461.619-.803 1.235-1.012 1.811-.276.68-.403 1.35-.479 1.836-.006.091-.016.18-.024.266a4.87 4.87 0 00-.035.557c.003.086.005.17.005.253.003.163.006.319.022.482l.081.65.059.265.048.221c.045.251.118.449.173.595.019.053.037.099.058.166l.085.242a.476.476 0 00.585.299.477.477 0 00.334-.568l-.055-.225a2.578 2.578 0 00-.05-.219 3.48 3.48 0 01-.091-.463l-.064-.455-.01-.234-.015-.341a8.65 8.65 0 01.115-1.317c.087-.414.216-.955.475-1.507.224-.54.581-1.052.896-1.474.337-.438.771-.853 1.323-1.264a7.234 7.234 0 011.68-.859 7.218 7.218 0 011.87-.369l-.024-.479a7.677 7.677 0 00-1.993.392 7.767 7.767 0 00-1.81.925c-.539.402-1.033.852-1.426 1.362-.385.515-.732 1.035-.959 1.584-.251.536-.395 1.083-.501 1.591a9.23 9.23 0 00-.126 1.414c.011.215.018.413.025.599l.069.5c.033.305.113.539.145.702l.058.248s-.028-.084-.084-.24c-.045-.16-.155-.379-.211-.688l-.109-.505a49.301 49.301 0 00-.075-.605c-.021-.218-.014-.452-.022-.694-.001-.248.04-.503.059-.771.085-.534.209-1.11.444-1.688.212-.584.545-1.159.951-1.707.409-.547.925-1.035 1.495-1.471.244-.18.504-.34.771-.485a7.313 7.313 0 00-4.271-1.385 7.28 7.28 0 00-2.388.405c-3.282 1.137-5.225 4.379-4.859 7.691a5.644 5.644 0 012.114-.407c.229 0 .451.014.666.048.485.054.93.184 1.327.325.192.086.385.154.552.247.165.098.327.182.467.278l.388.276.304.268c.189.152.298.311.39.403.086.095.131.148.131.148s-.051-.047-.149-.13c-.102-.08-.232-.217-.434-.349l-.319-.23c-.125-.071-.259-.147-.4-.23a8.03 8.03 0 00-1.019-.421 5.553 5.553 0 00-1.27-.23 3.861 3.861 0 00-.342-.015c-.353 0-.717.043-1.085.102-.489.085-.97.266-1.439.48a5.989 5.989 0 00-1.296.897l-.003.004a5.903 5.903 0 004.268 9.994c.541 0 1.09-.075 1.632-.231.042-.006.084-.012.126-.027l12.443-4.312a.53.53 0 00.112-.055 7.3 7.3 0 004.084-9.124 7.303 7.303 0 00-6.275-4.883zM77.711 23.806a.482.482 0 00.616-.033 5.154 5.154 0 001.4-2.151 5.199 5.199 0 00-.289-4 5.203 5.203 0 00-3.03-2.624 5.234 5.234 0 00-6.628 3.321 5.203 5.203 0 00.29 4 5.205 5.205 0 003.033 2.625 5.15 5.15 0 001.628.264c.522 0 1.047-.08 1.555-.235a.48.48 0 00.086-.881c-.689-.371-1.391-.557-2.087-.557-.27 0-.549.033-.864.104a4.099 4.099 0 01-1.092-.675 5.23 5.23 0 011.956-.389c1.189-.002 2.34.412 3.426 1.231zm-4.324.333c.294-.076.594-.127.898-.127.643 0 1.267.181 1.86.5-.454.14-.932.214-1.414.214a4.76 4.76 0 111.525-9.275 4.76 4.76 0 013.016 6.018A4.735 4.735 0 0178 23.422c-1.123-.845-2.377-1.329-3.715-1.329-.979 0-1.911.26-2.782.726a4.687 4.687 0 001.884 1.32zM76.471 49.598a.479.479 0 00-.182.035 5.26 5.26 0 01-2.004.417c-.476 0-.957-.07-1.43-.207a1.012 1.012 0 01-.007-.12c0-.292.071-.574.206-.833.417.133.83.2 1.23.2.649 0 1.313-.169 1.975-.502a.482.482 0 00.166-.717 2.82 2.82 0 00-2.266-1.139c-1.57 0-2.847 1.277-2.847 2.846s1.276 2.847 2.847 2.847a2.856 2.856 0 002.779-2.248.48.48 0 00-.467-.579zm-2.311 2.346a2.366 2.366 0 110-4.732c.771 0 1.45.375 1.883.948-.564.285-1.152.452-1.758.452-.489 0-.963-.113-1.425-.302a2.298 2.298 0 00-.491 1.415c0 .169.027.332.065.49a5.676 5.676 0 001.851.316c.76 0 1.487-.167 2.186-.452a2.365 2.365 0 01-2.311 1.865z"></path><path d="M60.326 8.217a16.722 16.722 0 00-8.186 9.612 16.695 16.695 0 00.927 12.838 16.712 16.712 0 009.732 8.422 16.87 16.87 0 005.321.867c2.706 0 5.315-.645 7.755-1.916a16.697 16.697 0 005.351-4.415.477.477 0 00.099-.368c-.1-.699-.229-1.366-.381-1.983a.486.486 0 00-.468-.363.48.48 0 00-.399.213 14.4 14.4 0 01-5.313 4.781 14.251 14.251 0 01-6.642 1.642c-1.542 0-3.077-.25-4.563-.745a14.313 14.313 0 01-8.34-7.215 14.324 14.324 0 01-.795-11 14.346 14.346 0 017.015-8.236 14.246 14.246 0 016.643-1.642c1.54 0 3.074.25 4.559.745 7.538 2.503 11.636 10.675 9.134 18.215-.113.34-.253.702-.439 1.139a.474.474 0 00-.012.351c.233.644.435 1.316.597 2a.481.481 0 00.465.369.478.478 0 00.42-.248c.51-.922.932-1.881 1.255-2.852 2.924-8.801-1.857-18.338-10.659-21.261a16.892 16.892 0 00-5.323-.867 16.627 16.627 0 00-7.753 1.917zm23.279 20.061c-.323.97-.733 1.894-1.22 2.771a18.91 18.91 0 00-.61-2.052c.165-.385.32-.774.454-1.176 2.587-7.792-1.646-16.234-9.438-18.822a14.895 14.895 0 00-4.709-.769c-2.36 0-4.704.57-6.865 1.697a14.817 14.817 0 00-7.247 8.509 14.796 14.796 0 00.821 11.366 14.787 14.787 0 008.617 7.455c1.547.514 3.134.77 4.714.77 2.359 0 4.699-.569 6.862-1.696a14.79 14.79 0 005.492-4.94c.156.621.278 1.269.375 1.936a16.289 16.289 0 01-5.197 4.289 16.262 16.262 0 01-7.533 1.862c-1.732 0-3.474-.279-5.171-.843a16.236 16.236 0 01-9.454-8.183 16.217 16.217 0 01-.9-12.471 16.247 16.247 0 017.952-9.338 16.247 16.247 0 017.53-1.862c1.733 0 3.475.28 5.173.844 8.55 2.838 13.193 12.103 10.354 20.653z"></path><path d="M63.881 54.717l1.693 2.479c.345.49.569.587.718.587.06 0 .105-.015.144-.026l15.014-4.885-1.365-4.176-.386-1.185c2.014-2.583 3.291-6.598 3.291-11.198 0-.972-.058-1.916-.166-2.828a18.038 18.038 0 002.361-4.681c3.135-9.437-1.977-19.626-11.411-22.759a17.99 17.99 0 00-5.677-.922h-.001l.001.48c1.873 0 3.732.302 5.526.898a17.409 17.409 0 0110.141 8.775 17.41 17.41 0 01.965 13.377 17.508 17.508 0 01-2.3 4.556.49.49 0 00-.083.333c.108.912.164 1.845.164 2.771 0 4.33-1.163 8.304-3.19 10.903a.473.473 0 00-.077.444l.387 1.186 1.216 3.719-14.543 4.731c-.047-.031-.156-.122-.333-.37l-1.688-2.478a.481.481 0 00-.546-.187L35.115 63.63c-.239.078-.469.19-.685.331l-.102-.311a.754.754 0 01.484-.953l27.519-8.995a.479.479 0 00.33-.472l-.083-2.539c-.019-.937.304-1.041.459-1.093l14.494-4.738a.759.759 0 01.944.471.478.478 0 00.452.321c.171 0 .329-.09.417-.238 1.401-2.42 2.206-5.737 2.206-9.104 0-.175-.008-.347-.014-.519l-.007-.2a.483.483 0 00-.481-.464.482.482 0 00-.345.146c-3.299 3.417-7.898 5.378-12.622 5.378-1.865 0-3.717-.301-5.504-.895a17.381 17.381 0 01-6.103-3.513.483.483 0 00-.288-.12 2.345 2.345 0 00-.167-.005c-.357 0-.676.071-.947.212l-.072.038a2.162 2.162 0 00-1.154 2.069c.004.066.022.13.053.188l.474.905a1.206 1.206 0 01-.516 1.626l-.066.035a1.208 1.208 0 01-1.49-.303l-.352-.568a2.158 2.158 0 00-2.917-.916l-4.337 2.26-2.407-.711a1.183 1.183 0 00-1.461.79c-.118.371-.337.79-.451.86-.122.07-.3.104-.543.104-.314 0-.696-.057-1.1-.117-.479-.072-1.023-.153-1.566-.153-.647 0-1.196.115-1.678.352-1.758.862-2.092 1.898-2.313 2.584-.135.419-.199.573-.388.672a.983.983 0 01-.431.079c-.603 0-1.311-.289-1.318-.292a1.17 1.17 0 00-.384-.066c-.504 0-.96.331-1.12.809-.649 1.413-1.528 3.056-1.801 3.259-.005.002-.053.029-.182.029-.516 0-1.358-.369-1.639-.512a.568.568 0 00-.081-.032.956.956 0 00-.253-.037c-.579 0-.943.542-1.092 1.049a.468.468 0 00-.014.069c-.082.587-.344 1.323-.586 1.439-.003.002-.092.036-.391.036-1.068 0-3.104-.414-3.113-.414a1.164 1.164 0 00-.336-.05 1.19 1.19 0 00-1.135.857c-.16.596-.432 1.239-.537 1.328-.282 0-.932-.266-1.304-.453a.6.6 0 00-.08-.031 1.181 1.181 0 00-.924.111l-5.455-1.462c-.079-.022-.103-.029-.156-.131-.037-.073-.034-.123-.038-.123l-.002.004c.008-.023.016-.045.021-.068l1.189-4.822c.091-.4.232-.838.299-.932.075-.085.431-.314.76-.488L44.87 28.429a.48.48 0 00.226-.596c-.003-.012-.445-1.175-.573-1.737a11.318 11.318 0 01-.069-.597c.03-.424.269-.79.639-.982l.077-.04a1.19 1.19 0 01.551-.135c.229 0 .454.065.649.188.021.014.042.024.063.035a.5.5 0 00.048.044c.127.103.232.231.311.38l.148.283c.03.058.073.11.124.151a2.159 2.159 0 002.362.233l.066-.036a3.5 3.5 0 001.017-.791.482.482 0 00.115-.351 17.467 17.467 0 01.846-6.875A17.496 17.496 0 0168.095 5.599v-.48c-7.544 0-14.571 4.781-17.08 12.333a17.992 17.992 0 00-.87 7.063c-.236.273-.552.51-.876.679l-.07.038c-.248.129-.513.19-.775.19-.383 0-.76-.132-1.06-.374l-.148-.284a1.697 1.697 0 00-.434-.532l-.082-.149-.075.039a1.675 1.675 0 00-1.678-.073l-.073.037a1.677 1.677 0 00-.902 1.419s.055.578.082.693c.138.603.593 1.801.593 1.801L12.469 44.777s-.737.391-.913.614c-.193.247-.393 1.124-.393 1.124l-1.187 4.816s-.095.228.059.522a.662.662 0 00.447.37l5.662 1.518c.008.002.016.007.022.009a.707.707 0 01.692-.177s.995.504 1.52.504a.437.437 0 00.206-.042c.415-.221.794-1.641.794-1.641a.7.7 0 01.87-.475s2.113.436 3.25.436c.264 0 .475-.024.595-.082.647-.312.857-1.807.857-1.807.096-.332.32-.704.631-.704.038 0 .076.005.117.018 0 0 1.109.562 1.855.562a.836.836 0 00.418-.091c.553-.314 2.013-3.502 2.013-3.502a.701.701 0 01.871-.474s.791.328 1.501.328c.238 0 .466-.037.654-.134.99-.516.138-2 2.689-3.251.464-.228.964-.302 1.466-.302.955 0 1.92.27 2.667.27.301 0 .567-.044.781-.167.382-.218.67-1.132.67-1.132a.699.699 0 01.869-.475l2.592.766 4.508-2.349a1.688 1.688 0 012.271.714l.368.598a1.686 1.686 0 002.119.477l.07-.038a1.683 1.683 0 00.716-2.27l-.475-.906c-.046-.647.29-1.29.9-1.61l.071-.037c.21-.109.461-.159.725-.159.045 0 .092.001.136.005a17.933 17.933 0 006.27 3.608 17.9 17.9 0 005.656.919c4.908 0 9.596-2.03 12.967-5.524.008.235.021.467.021.704 0 3.444-.832 6.604-2.143 8.862a1.234 1.234 0 00-1.547-.769l-14.493 4.736c-.649.211-.804.839-.791 1.559l.083 2.546-27.512 8.996a1.236 1.236 0 00-.791 1.559l.323.989a2.55 2.55 0 011.07-.703l28.615-9.368zM68.096 5.122z"></path><path d="M68.172 41.522h-.01c-.68 0-1.346-.039-2.004-.094.485 2.106 1.263 3.955 2.254 5.43l1.92-.64c-.914-1.218-1.664-2.834-2.16-4.696zm-1.388.434c.359.022.697.037 1.023.043.432 1.503 1.034 2.858 1.762 3.969l-.957.319c-.773-1.231-1.397-2.712-1.828-4.331z"></path></g><!----></svg>