<svg data-v-fde0c5aa="" xmlns="http://www.w3.org/2000/svg" viewBox="0 0 300 300" class="font"><!----><defs data-v-fde0c5aa=""><!----></defs><rect data-v-fde0c5aa="" fill="#5B359D" x="0" y="0" width="300px" height="300px" class="logo-background-square"></rect><defs data-v-fde0c5aa=""><!----></defs><g data-v-fde0c5aa="" id="65860977-ccf9-4f0d-a5c2-cbc8113f5b97" fill="#9563C5" transform="matrix(2.8675703401922306,0,0,2.8675703401922306,37.59124081852304,128.45020859263528)"><path d="M7.56 7.17L7.56 7.17Q7.56 7.14 7.58 7.45Q7.60 7.76 7.60 7.98L7.60 7.98Q7.59 8.29 7.50 8.43L7.50 8.43Q6.66 9.88 5.64 10.98L5.64 10.98Q4.17 12.56 2.98 12.56L2.98 12.56Q1.93 12.56 1.33 11.52L1.33 11.52Q0.84 10.71 0.84 9.80L0.84 9.80Q0.84 8.58 1.90 7.06Q2.97 5.54 4.14 5.00L4.14 5.00Q4.27 5.19 4.28 5.21L4.28 5.21Q4.41 5.36 4.55 5.36L4.55 5.36L5.52 5.36Q5.57 5.28 5.54 5.10L5.54 5.10Q5.52 4.82 5.52 4.83L5.52 4.83L5.52 3.93Q5.52 3.82 5.10 3.53L5.10 3.53Q4.62 3.19 4.58 3.14L4.58 3.14Q4.44 3.25 4.28 3.35L4.28 3.35Q4.09 3.46 3.85 3.46L3.85 3.46Q3.85 3.02 4.87 2.11Q5.89 1.20 6.23 1.20L6.23 1.20Q6.29 1.20 6.85 1.66Q7.41 2.11 7.41 2.20L7.41 2.20L7.41 3.42Q7.41 3.44 7.45 3.60Q7.49 3.77 7.49 3.81L7.49 3.81L7.49 5.68Q7.49 5.68 7.53 6.31Q7.56 6.94 7.56 7.17ZM5.66 8.65L5.66 8.65L5.57 6.29Q5.38 6.44 4.86 6.78L4.86 6.78Q4.16 7.22 3.99 7.22L3.99 7.22L2.86 7.22Q2.84 7.34 2.79 7.57L2.79 7.57Q2.74 7.74 2.74 8.19L2.74 8.19Q2.74 9.18 3.28 9.91L3.28 9.91Q3.92 10.79 5.03 10.70L5.03 10.70Q5.52 10.21 5.63 9.69L5.63 9.69Q5.66 9.51 5.66 8.65ZM17.30 10.44L17.30 10.44Q17.19 10.77 16.38 11.68L16.38 11.68Q15.50 12.68 15.09 12.68L15.09 12.68Q15.04 12.68 14.42 12.11L14.42 12.11Q13.76 11.51 13.73 11.28L13.73 11.28Q13.37 11.76 12.46 12.22Q11.55 12.68 11.03 12.68L11.03 12.68Q10.15 12.68 9.55 11.89L9.55 11.89Q9.03 11.20 9.03 10.46L9.03 10.46Q9.03 8.64 10.67 6.72L10.67 6.72Q12.12 5.01 13.43 4.65L13.43 4.65Q13.47 4.63 13.62 4.55Q13.78 4.47 13.83 4.47L13.83 4.47Q13.82 4.47 14.23 4.75Q14.64 5.04 15.13 5.04L15.13 5.04Q15.65 5.04 15.88 4.93L15.88 4.93Q16.06 4.83 16.30 4.86L16.30 4.86Q16.34 5.19 15.65 5.85L15.65 5.85L15.65 7.04Q15.65 7.10 15.69 7.24Q15.74 7.38 15.74 7.42L15.74 7.42L15.74 9.59Q16.10 9.94 16.80 10.58L16.80 10.58Q17.18 10.42 17.30 10.44ZM13.76 10.39L13.76 10.39L13.76 9.37Q13.76 9.31 13.72 9.17Q13.68 9.03 13.68 8.99L13.68 8.99L13.68 7.07Q13.65 7.06 13.12 7.06L13.12 7.06Q12.87 7.06 12.49 6.79L12.49 6.79Q12.22 6.59 11.96 6.40L11.96 6.40Q11.52 6.62 11.24 7.42L11.24 7.42Q11.00 8.09 11.00 8.67L11.00 8.67Q11.00 9.31 11.48 9.95L11.48 9.95Q12.03 10.71 12.80 10.71L12.80 10.71Q13.10 10.71 13.76 10.39ZM24.56 5.14L24.74 5.19Q24.67 5.73 23.78 6.50Q22.89 7.28 22.25 7.43L22.25 7.43L22.25 9.17Q22.25 9.35 22.08 10.02L22.08 10.02Q21.74 11.40 21.39 12.07L21.39 12.07Q20.71 13.38 19.49 13.85L19.49 13.85Q19.56 13.72 19.95 12.47L19.95 12.47Q20.36 11.13 20.36 10.79L20.36 10.79L20.36 7.21Q19.99 7.00 19.57 7.00L19.57 7.00Q19.21 7.00 18.86 7.15L18.86 7.15Q18.77 7.18 18.19 7.52L18.19 7.52L18.00 7.46Q18.07 7.00 18.90 6.26L18.90 6.26Q19.61 5.61 20.29 5.26L20.29 5.26L20.29 3.84Q20.29 3.78 19.97 3.48Q19.66 3.18 19.61 3.18L19.61 3.18Q19.59 3.18 19.43 3.26Q19.28 3.35 19.11 3.32L19.11 3.32Q19.22 2.98 19.99 2.13L19.99 2.13Q20.85 1.18 21.27 1.18L21.27 1.18Q21.34 1.18 22.16 2.00L22.16 2.00L22.16 4.76Q22.16 5.31 22.55 5.46L22.55 5.46Q22.75 5.54 23.32 5.54L23.32 5.54Q23.73 5.54 23.83 5.52Q23.93 5.49 24.56 5.14L24.56 5.14ZM34.15 10.44L34.15 10.44Q34.03 10.77 33.22 11.68L33.22 11.68Q32.34 12.68 31.93 12.68L31.93 12.68Q31.88 12.68 31.26 12.11L31.26 12.11Q30.60 11.51 30.58 11.28L30.58 11.28Q30.21 11.76 29.30 12.22Q28.39 12.68 27.87 12.68L27.87 12.68Q26.99 12.68 26.39 11.89L26.39 11.89Q25.87 11.20 25.87 10.46L25.87 10.46Q25.87 8.64 27.51 6.72L27.51 6.72Q28.97 5.01 30.27 4.65L30.27 4.65Q30.31 4.63 30.46 4.55Q30.62 4.47 30.67 4.47L30.67 4.47Q30.66 4.47 31.07 4.75Q31.49 5.04 31.98 5.04L31.98 5.04Q32.49 5.04 32.72 4.93L32.72 4.93Q32.90 4.83 33.14 4.86L33.14 4.86Q33.18 5.19 32.49 5.85L32.49 5.85L32.49 7.04Q32.49 7.10 32.54 7.24Q32.58 7.38 32.58 7.42L32.58 7.42L32.58 9.59Q32.94 9.94 33.64 10.58L33.64 10.58Q34.02 10.42 34.15 10.44ZM30.60 10.39L30.60 10.39L30.60 9.37Q30.60 9.31 30.56 9.17Q30.52 9.03 30.52 8.99L30.52 8.99L30.52 7.07Q30.49 7.06 29.96 7.06L29.96 7.06Q29.71 7.06 29.33 6.79L29.33 6.79Q29.06 6.59 28.80 6.40L28.80 6.40Q28.36 6.62 28.08 7.42L28.08 7.42Q27.85 8.09 27.85 8.67L27.85 8.67Q27.85 9.31 28.32 9.95L28.32 9.95Q28.87 10.71 29.64 10.71L29.64 10.71Q29.95 10.71 30.60 10.39ZM44.16 5.11L44.16 5.11Q44.16 5.91 44.02 6.55L44.02 6.55Q43.74 7.71 42.45 9.48L42.45 9.48Q42.03 10.07 40.96 11.14L40.96 11.14Q39.55 12.57 39.03 12.57L39.03 12.57Q38.84 12.57 37.61 11.61Q36.39 10.65 36.39 10.43L36.39 10.43L36.39 8.29Q36.39 8.25 36.34 8.10Q36.30 7.95 36.32 7.90L36.32 7.90L36.32 6.69Q35.84 6.58 35 6.27L35 6.27Q35.06 5.94 35.81 5.04L35.81 5.04Q36.62 4.07 37.03 4.07L37.03 4.07Q37.07 4.07 37.20 4.19Q37.34 4.30 37.39 4.33L37.39 4.33Q37.58 4.42 37.93 4.48L37.93 4.48Q38.39 4.56 38.50 4.59L38.50 4.59L38.50 6.22Q38.50 6.26 38.54 6.36Q38.58 6.45 38.58 6.51L38.58 6.51L38.58 8.53Q38.64 8.57 39.75 9.52L39.75 9.52Q40.54 10.23 40.84 10.29L40.84 10.29Q41.64 9.18 41.83 8.51L41.83 8.51Q41.97 8.05 41.97 7.01L41.97 7.01Q41.97 6.26 41.92 6.03L41.92 6.03Q41.76 5.33 41.13 5.00L41.13 5.00Q41.01 4.91 40.88 4.83L40.88 4.83Q40.71 4.72 40.61 4.72L40.61 4.72Q40.43 4.72 40.05 5.00Q39.68 5.28 39.54 5.28L39.54 5.28Q39.47 5.28 39.41 5.24L39.41 5.24Q39.49 4.65 40.70 3.60Q41.90 2.56 42.53 2.56L42.53 2.56Q42.87 2.56 43.57 3.04L43.57 3.04Q44.16 3.46 44.16 5.11ZM53.86 7.03L53.86 7.03Q53.86 8.20 52.49 9.55L52.49 9.55Q51.11 10.78 49.76 12.01L49.76 12.01Q49.60 12.17 49.10 12.26L49.10 12.26Q48.65 12.36 48.29 12.36L48.29 12.36Q47.31 12.36 46.42 11.56L46.42 11.56Q45.50 10.72 45.50 9.67L45.50 9.67Q45.50 8.26 46.62 6.47L46.62 6.47Q47.78 4.61 49.21 3.89L49.21 3.89Q49.22 3.92 49.21 4.06L49.21 4.06Q49.21 4.17 49.27 4.17L49.27 4.17Q49.41 4.17 49.95 4.03Q50.48 3.89 50.92 3.89L50.92 3.89Q52.18 3.89 53.05 4.89L53.05 4.89Q53.86 5.82 53.86 7.03ZM51.70 9.32L51.70 9.32L51.70 8.29Q51.70 7.77 50.97 6.97Q50.23 6.17 49.78 6.09L49.78 6.09Q49.20 5.99 49.01 5.99L49.01 5.99Q48.13 5.99 47.85 6.45L47.85 6.45Q47.66 6.79 47.66 7.76L47.66 7.76Q47.66 8.71 48.48 9.48Q49.31 10.25 50.19 10.25L50.19 10.25Q50.68 10.25 50.88 10.12L50.88 10.12Q51.02 10.04 51.70 9.32ZM64.79 10.37L64.97 10.37Q65.03 10.79 64.00 11.80Q62.97 12.81 62.62 12.81L62.62 12.81Q62.52 12.81 61.92 12.24Q61.32 11.68 61.39 11.45L61.39 11.45L61.36 10.49Q59.71 11.86 59.36 12.08L59.36 12.08Q58.58 12.57 57.61 12.57L57.61 12.57Q56.64 12.57 55.93 12.05L55.93 12.05Q55.10 11.47 55.10 10.43L55.10 10.43Q55.10 8.65 57.06 6.38L57.06 6.38Q57.02 6.34 56.91 6.34L56.91 6.34Q56.81 6.34 56.59 6.40Q56.36 6.45 56.32 6.45L56.32 6.45Q56.14 6.45 56 6.31L56 6.31Q56.04 6.08 56.80 5.22L56.80 5.22Q57.61 4.28 57.97 4.28L57.97 4.28Q58.03 4.28 58.09 4.33Q58.14 4.37 58.18 4.37L58.18 4.37Q58.24 4.37 58.33 4.33Q58.42 4.28 58.48 4.30L58.48 4.30L59.70 4.30Q59.75 4.34 59.75 4.44L59.75 4.44Q59.75 4.75 59.09 5.35L59.09 5.35Q58.17 6.20 57.85 6.62L57.85 6.62Q57.19 7.53 57.19 8.55L57.19 8.55Q57.19 9.48 57.92 10.01L57.92 10.01Q58.56 10.49 59.49 10.49L59.49 10.49Q60.48 10.49 61.39 9.60L61.39 9.60L61.39 7.78Q61.39 7.74 61.35 7.64Q61.31 7.55 61.31 7.49L61.31 7.49L61.31 6.40Q61.21 6.34 60.24 5.91L60.24 5.91L60.24 5.70Q60.24 5.47 61.10 4.63Q61.96 3.79 62.20 3.79L62.20 3.79Q62.33 3.79 63.38 4.38L63.38 4.38L63.38 5.54Q63.38 5.59 63.42 5.66Q63.46 5.73 63.46 5.77L63.46 5.77L63.46 9.73Q63.62 9.84 64.01 10.23L64.01 10.23Q64.33 10.57 64.39 10.57L64.39 10.57Q64.43 10.57 64.58 10.48Q64.74 10.39 64.79 10.37L64.79 10.37ZM70.15 9.95L70.15 9.95Q70.15 10.51 69.01 11.61L69.01 11.61Q67.93 12.61 67.62 12.66L67.62 12.66Q67.52 12.53 66.99 12.11L66.99 12.11Q66.70 11.87 66.70 11.55L66.70 11.55L66.70 7.41Q66.70 7.38 66.74 7.19Q66.78 7.00 66.78 6.94L66.78 6.94L66.78 3.92Q66.57 3.61 66.39 3.44L66.39 3.44Q65.95 3.74 65.52 3.93L65.52 3.93Q65.46 3.88 65.46 3.75L65.46 3.75Q65.46 3.30 66.54 2.24Q67.62 1.18 68.08 1.18L68.08 1.18Q68.21 1.18 68.54 1.48Q68.88 1.79 68.88 1.93L68.88 1.93L68.88 5.28Q68.88 5.32 68.84 5.43Q68.80 5.54 68.80 5.60L68.80 5.60L68.80 9.59Q68.80 9.72 69.01 9.97Q69.22 10.22 69.36 10.22L69.36 10.22Q69.38 10.22 69.65 10.04Q69.92 9.87 70.10 9.81L70.10 9.81Q70.15 9.87 70.15 9.95ZM77.38 5.14L77.56 5.19Q77.49 5.73 76.60 6.50Q75.71 7.28 75.07 7.43L75.07 7.43L75.07 9.17Q75.07 9.35 74.90 10.02L74.90 10.02Q74.56 11.40 74.21 12.07L74.21 12.07Q73.53 13.38 72.31 13.85L72.31 13.85Q72.38 13.72 72.77 12.47L72.77 12.47Q73.18 11.13 73.18 10.79L73.18 10.79L73.18 7.21Q72.81 7.00 72.39 7.00L72.39 7.00Q72.03 7.00 71.68 7.15L71.68 7.15Q71.60 7.18 71.01 7.52L71.01 7.52L70.83 7.46Q70.90 7.00 71.72 6.26L71.72 6.26Q72.44 5.61 73.11 5.26L73.11 5.26L73.11 3.84Q73.11 3.78 72.79 3.48Q72.48 3.18 72.44 3.18L72.44 3.18Q72.41 3.18 72.25 3.26Q72.10 3.35 71.93 3.32L71.93 3.32Q72.04 2.98 72.81 2.13L72.81 2.13Q73.67 1.18 74.09 1.18L74.09 1.18Q74.16 1.18 74.98 2.00L74.98 2.00L74.98 4.76Q74.98 5.31 75.38 5.46L75.38 5.46Q75.57 5.54 76.15 5.54L76.15 5.54Q76.55 5.54 76.65 5.52Q76.75 5.49 77.38 5.14L77.38 5.14Z"></path></g><!----><!----></svg>